<?xml version="1.0" encoding="UTF-8"?>
<svg width="107px" height="108px" viewBox="0 0 107 108" version="1.1" xmlns="http://www.w3.org/2000/svg" xmlns:xlink="http://www.w3.org/1999/xlink">
    <!-- Generator: Sketch 43.1 (39012) - http://www.bohemiancoding.com/sketch -->
    <title>Group 6</title>
    <desc>Created with Sketch.</desc>
    <defs></defs>
    <g id="Page-1" stroke="none" stroke-width="1" fill="none" fill-rule="evenodd">
        <g id="Type-studies-Copy-28" transform="translate(-456.000000, -1648.000000)" fill="#49C9A4">
            <g id="Group-6" transform="translate(445.000000, 1632.000000)">
                <polygon id="Polygon" opacity="0.1" style="mix-blend-mode: multiply;" transform="translate(67.166168, 66.130327) rotate(18.000000) translate(-67.166168, -66.130327) " points="67.1661684 14.0446586 110.229446 34.6770693 120.865198 81.0376752 91.0644847 118.215994 43.267852 118.215994 13.467139 81.0376752 24.1028903 34.6770693"></polygon>
                <polygon id="Polygon-Copy" opacity="0.119999997" style="mix-blend-mode: multiply;" transform="translate(66.753155, 65.908748) rotate(18.000000) translate(-66.753155, -65.908748) " points="66.7531553 23.4490583 101.857888 40.2683828 110.52804 78.061062 86.2348119 108.368438 47.2714987 108.368438 22.9782703 78.061062 31.6484232 40.2683828"></polygon>
                <polygon id="Polygon-Copy-2" opacity="0.149999991" style="mix-blend-mode: multiply;" transform="translate(66.895636, 66.264940) rotate(18.000000) translate(-66.895636, -66.264940) " points="66.8956361 34.5514071 93.115684 47.1139155 99.591501 75.3416158 81.4466649 97.9784738 52.3446073 97.9784738 34.1997712 75.3416158 40.6755883 47.1139155"></polygon>
            </g>
        </g>
    </g>
</svg>