<?xml version="1.0" encoding="UTF-8"?>
<svg width="81px" height="27px" viewBox="0 0 81 27" version="1.1" xmlns="http://www.w3.org/2000/svg" xmlns:xlink="http://www.w3.org/1999/xlink">
    <!-- Generator: Sketch 43.1 (39012) - http://www.bohemiancoding.com/sketch -->
    <title>Group 11</title>
    <desc>Created with Sketch.</desc>
    <defs></defs>
    <g id="Page-1" stroke="none" stroke-width="1" fill="none" fill-rule="evenodd">
        <g id="Type-studies-Copy-28" transform="translate(-515.000000, -2558.000000)">
            <g id="Group-11" transform="translate(515.000000, 2558.000000)">
                <polygon id="Fill-1" fill="#868791" points="0 26.9907429 26.8616057 26.9907429 26.8616057 0.13716 0 0.13716"></polygon>
                <polygon id="Fill-3" fill="#71717A" points="26.8616057 26.9907429 53.7255257 26.9907429 53.7255257 0.13716 26.8616057 0.13716"></polygon>
                <polygon id="Fill-4" fill="#868791" points="53.7255257 26.9907429 80.5883657 26.9907429 80.5883657 0.13716 53.7255257 0.13716"></polygon>
                <path d="M16.2995143,20.4214114 L16.2995143,12.49452 C16.2995143,11.3251886 16.0748743,10.4710629 15.6242057,9.93337714 C15.1736914,9.39522857 14.4391371,9.12646286 13.4183829,9.12646286 C12.94596,9.12646286 12.4422171,9.25868571 11.9057657,9.52328571 C11.3707029,9.78850286 10.9513543,10.1171314 10.6517314,10.5096343 L10.6517314,20.4214114 L7.44320571,20.4214114 L7.44320571,6.65048571 L9.75656571,6.65048571 L10.3473257,7.93476 C11.2208914,6.92480571 12.5110286,6.41921143 14.2168114,6.41921143 C15.8513143,6.41921143 17.14284,6.90845143 18.09,7.88816571 C19.0370057,8.86788 19.5106629,10.2348514 19.5106629,11.9889257 L19.5106629,20.4214114 L16.2995143,20.4214114" id="Fill-6" fill="#FFFFFF"></path>
                <path d="M40.0405371,20.6926457 C42.1400571,20.6926457 43.7964686,20.0842971 45.0093086,18.8677543 C46.2233829,17.6512114 46.8286457,15.91704 46.8286457,13.6646229 C46.8286457,8.83409143 44.6348571,6.41921143 40.2458914,6.41921143 C39.0716229,6.41921143 38.0821886,6.80461714 37.2752743,7.57589143 L37.2752743,6.65048571 L34.06536,6.65048571 L34.06536,25.2408343 L37.2752743,25.2408343 L37.2752743,20.0873829 C38.1064114,20.49084 39.0281143,20.6926457 40.0405371,20.6926457 Z M39.3240343,9.16518857 C40.8027086,9.16518857 41.8621886,9.49674857 42.5037086,10.1587886 C43.1439943,10.8208286 43.4629029,11.9636229 43.4629029,13.5873257 C43.4629029,15.1088914 43.14168,16.2214457 42.4952229,16.9269943 C41.8513886,17.6313086 40.7906743,17.9840057 39.312,17.9840057 C38.5351714,17.9840057 37.8563143,17.7490286 37.2752743,17.2792286 L37.2752743,10.0620514 C37.8731314,9.46465714 38.5556914,9.16518857 39.3240343,9.16518857 L39.3240343,9.16518857 Z" id="Fill-7" fill="#FFFFFF"></path>
                <path d="M70.7099143,9.66769714 C70.13844,9.30713143 69.5138914,9.12646286 68.8325657,9.12646286 C68.0895257,9.12646286 67.4311886,9.46419429 66.8574,10.1382686 C66.2799086,10.81296 65.9935543,11.6362286 65.9935543,12.6093086 L65.9935543,20.4214114 L62.78256,20.4214114 L62.78256,6.65048571 L65.9935543,6.65048571 L65.9935543,7.96608 C66.88764,6.93498857 68.0774914,6.41921143 69.5611029,6.41921143 C70.6519029,6.41921143 71.4867429,6.58584 72.0665486,6.91925143 L70.7099143,9.66769714" id="Fill-8" fill="#FFFFFF"></path>
            </g>
        </g>
    </g>
</svg>