<?xml version="1.0" encoding="UTF-8"?>
<svg width="43px" height="35px" viewBox="0 0 43 35" version="1.1" xmlns="http://www.w3.org/2000/svg" xmlns:xlink="http://www.w3.org/1999/xlink">
    <!-- Generator: Sketch 43.1 (39012) - http://www.bohemiancoding.com/sketch -->
    <title>Fill 1</title>
    <desc>Created with Sketch.</desc>
    <defs></defs>
    <g id="Page-1" stroke="none" stroke-width="1" fill="none" fill-rule="evenodd">
        <g id="Type-studies-Copy-29" transform="translate(-712.000000, -2878.000000)" fill="#868791">
            <path d="M712,2909.4037 C712.644213,2909.50332 713.346537,2909.55147 714.103653,2909.55147 C716.066176,2909.55147 717.987192,2909.17125 719.866698,2908.41414 C721.746205,2907.65702 723.477941,2906.64089 725.061907,2905.36409 C723.169118,2905.35247 721.462287,2904.76637 719.939753,2903.60911 C718.41888,2902.45185 717.384488,2900.99075 716.838235,2899.22249 C717.427657,2899.33539 717.973909,2899.39184 718.478653,2899.39184 C719.29222,2899.39184 720.077562,2899.28558 720.834677,2899.07472 C718.800759,2898.66959 717.110531,2897.65678 715.765655,2896.03629 C714.419118,2894.41746 713.745019,2892.54127 713.745019,2890.41105 L713.745019,2890.30479 C715.008539,2890.99051 716.340133,2891.35579 717.741461,2891.3973 C716.52277,2890.58539 715.558112,2889.53273 714.849146,2888.24265 C714.141841,2886.95422 713.788188,2885.56618 713.788188,2884.07851 C713.788188,2882.63401 714.18667,2881.20446 714.986954,2879.78653 C717.20185,2882.4796 719.879981,2884.6148 723.021347,2886.19379 C726.162713,2887.77111 729.54981,2888.65773 733.180977,2888.85365 C733.054791,2888.30574 732.991698,2887.62666 732.991698,2886.81309 C732.991698,2884.37239 733.851755,2882.29364 735.568548,2880.57685 C737.285342,2878.8584 739.36575,2878 741.804791,2878 C744.315228,2878 746.481973,2878.92647 748.305028,2880.77609 C750.310721,2880.36931 752.168643,2879.6537 753.878795,2878.63093 C753.206357,2880.76115 751.90963,2882.39492 749.986954,2883.53226 C751.740275,2883.33468 753.437144,2882.86646 755.077562,2882.12097 C753.90038,2883.90417 752.435958,2885.43169 750.680977,2886.70683 L750.680977,2887.86409 C750.680977,2889.82827 750.431926,2891.80076 749.935484,2893.78653 C749.437381,2895.77064 748.721774,2897.69829 747.790323,2899.5695 C746.857211,2901.44236 745.661765,2903.19236 744.203985,2904.81784 C742.744545,2906.44497 741.110769,2907.86456 739.302657,2909.07827 C737.492884,2910.29032 735.407495,2911.24668 733.044829,2911.949 C730.682163,2912.64967 728.18833,2913 725.566651,2913 C720.251898,2913 715.730787,2911.80123 712,2909.4037 Z" id="Fill-1"></path>
        </g>
    </g>
</svg>