<?xml version="1.0" encoding="UTF-8"?>
<svg width="70px" height="35px" viewBox="0 0 70 35" version="1.1" xmlns="http://www.w3.org/2000/svg" xmlns:xlink="http://www.w3.org/1999/xlink">
    <!-- Generator: Sketch 43.1 (39012) - http://www.bohemiancoding.com/sketch -->
    <title>Combined-Shape</title>
    <desc>Created with Sketch.</desc>
    <defs></defs>
    <g id="Page-1" stroke="none" stroke-width="1" fill="none" fill-rule="evenodd" opacity="0.600000024">
        <g id="Type-studies-Copy-29" transform="translate(-481.000000, -2878.000000)" fill-rule="nonzero" fill="#353747">
            <path d="M547.009321,2895.08531 C549.213646,2895.08531 551,2896.86777 551,2899.06635 C551,2901.26512 549.213646,2903.04739 547.009321,2903.04739 C544.805176,2903.04739 543.019002,2901.26512 543.019002,2899.06635 C543.019002,2896.86777 544.805176,2895.08531 547.009321,2895.08531 Z M507.270784,2909.27195 L507.276447,2891.09758 C507.277178,2889.07869 508.924208,2887.44519 510.949201,2887.45502 C512.960858,2887.46467 514.586333,2889.09326 514.586333,2891.09867 L514.586698,2909.27304 C514.586698,2911.28556 512.950263,2912.91706 510.931664,2912.91706 C508.906671,2912.91706 507.270236,2911.28483 507.270784,2909.27195 Z M495.722871,2898.35887 L500.342775,2893.82297 C501.837176,2892.3558 501.804462,2889.9418 500.270952,2888.51529 C498.830464,2887.17519 496.588041,2887.20272 495.180815,2888.57764 L488.333108,2895.26827 L488.304781,2881.72493 C488.30076,2879.75362 486.764874,2878.07568 484.790189,2878.00256 C482.71316,2877.9258 481.000183,2879.58333 481.000183,2881.64361 L481,2909.37354 C481,2911.37639 482.627447,2913 484.635029,2913 C486.642427,2913 488.269874,2911.37657 488.270057,2909.37372 L488.27024,2904.84621 L490.112792,2903.14091 L496.340954,2911.50475 C497.538375,2913.11268 499.810039,2913.46001 501.435111,2912.28346 C503.082844,2911.0905 503.440134,2908.78663 502.231016,2907.15281 L495.722871,2898.35887 Z M534.463903,2898.35887 L539.083788,2893.82297 C540.578182,2892.3558 540.545652,2889.9418 539.012147,2888.51529 C537.571483,2887.17519 535.329252,2887.20272 533.922032,2888.57764 L527.074353,2895.26827 L527.046026,2881.72493 C527.041823,2879.75362 525.505943,2878.07568 523.531266,2878.00256 C521.454429,2877.9258 519.741458,2879.58333 519.741458,2881.64361 L519.741093,2909.37354 C519.741093,2911.37639 521.368533,2913 523.376106,2913 C525.383679,2913 527.01112,2911.37657 527.01112,2909.37372 L527.011303,2904.84621 L528.85403,2903.14091 L535.081983,2911.50475 C536.279582,2913.11268 538.551054,2913.46001 540.176302,2912.28346 C541.823846,2911.0905 542.181316,2908.78663 540.972021,2907.15281 L534.463903,2898.35887 Z" id="Combined-Shape"></path>
        </g>
    </g>
</svg>