<?xml version="1.0" encoding="UTF-8"?>
<svg width="130px" height="27px" viewBox="0 0 130 27" version="1.1" xmlns="http://www.w3.org/2000/svg" xmlns:xlink="http://www.w3.org/1999/xlink">
    <!-- Generator: Sketch 43.1 (39012) - http://www.bohemiancoding.com/sketch -->
    <title>Group 9</title>
    <desc>Created with Sketch.</desc>
    <defs></defs>
    <g id="Page-1" stroke="none" stroke-width="1" fill="none" fill-rule="evenodd">
        <g id="Type-studies-Copy-28" transform="translate(-218.000000, -2558.000000)">
            <g id="Group-9" transform="translate(218.000000, 2558.000000)">
                <polygon id="Fill-3" fill="#868791" points="103.370684 26.5372105 129.186474 26.5372105 129.186474 0.247736842 103.370684 0.247736842"></polygon>
                <polygon id="Fill-4" fill="#868791" points="51.9759474 26.5372105 77.7917368 26.5372105 77.7917368 0.247736842 51.9759474 0.247736842"></polygon>
                <polygon id="Fill-5" fill="#868791" points="0.344368421 26.5372105 26.1601579 26.5372105 26.1601579 0.247736842 0.344368421 0.247736842"></polygon>
                <path d="M45.621,7.39231579 L45.621,4.39247368 L33.147,4.39247368 L33.147,7.39231579 L37.4892632,7.39231579 L37.4892632,19.2348947 L33.147,19.2348947 L33.147,22.2347368 L45.621,22.2347368 L45.621,19.2348947 L40.8841579,19.2348947 L40.8841579,7.39231579 L45.621,7.39231579" id="Fill-6" fill="#868791"></path>
                <path d="M66.2655789,12.3266842 C64.0548947,12.3266842 61.371,12.4057895 61.371,12.4057895 L61.371,7.51073684 L66.3446842,7.51073684 C66.3446842,7.51073684 69.0285789,7.11615789 69.0285789,9.64231579 C69.0285789,11.853 68.4762632,12.3266842 66.2655789,12.3266842 Z M69.8973158,14.0636842 C69.8973158,14.0636842 72.5812105,13.8268421 72.5812105,9.01089474 C72.5812105,4.19494737 68.1603158,4.43178947 68.1603158,4.43178947 L57.897,4.43178947 L57.897,22.1163158 L61.371,22.1163158 L61.371,15.2478947 C61.371,15.2478947 64.9236316,15.1687895 66.9761053,15.1687895 C69.0285789,15.1687895 69.0285789,18.1686316 69.0285789,18.1686316 L69.0285789,22.0372105 L72.5812105,22.0372105 L72.5812105,17.9317895 C72.5812105,14.2209474 69.8973158,14.0636842 69.8973158,14.0636842 L69.8973158,14.0636842 Z" id="Fill-7" fill="#FFFFFF"></path>
                <polyline id="Fill-8" fill="#868791" points="82.5285789 4.43178947 82.5285789 7.353 84.9761053 7.353 84.9761053 19.2742105 82.5285789 19.2742105 82.5285789 22.1949474 97.6078421 22.1949474 97.6078421 16.4321053 94.6075263 16.4321053 94.6075263 19.2742105 88.2127895 19.2742105 88.2127895 14.4582632 92.9496316 14.4582632 92.9496316 11.5370526 88.2127895 11.5370526 88.2127895 7.353 94.3706842 7.353 94.3706842 10.1951053 97.6078421 10.1951053 97.6078421 4.43178947 82.5285789 4.43178947"></polyline>
                <path d="M121.133842,15.8002105 C121.133842,15.8002105 121.055211,19.2742105 118.370842,19.2742105 L112.765737,19.2742105 L112.765737,7.43210526 L118.134,7.43210526 C118.134,7.43210526 121.133842,7.19478947 121.133842,11.2215789 L121.133842,15.8002105 Z M124.686474,15.7215789 L124.686474,10.7478947 C124.686474,3.64263158 116.792053,4.51089474 116.792053,4.51089474 L109.134,4.51089474 L109.134,22.4317895 C109.134,22.4317895 112.055211,22.3531579 118.528579,22.3531579 C125.001947,22.3531579 124.686474,15.7215789 124.686474,15.7215789 L124.686474,15.7215789 Z" id="Fill-9" fill="#FFFFFF"></path>
                <polyline id="Fill-10" fill="#FFFFFF" points="2.55505263 4.51089474 6.10768421 4.51089474 8.55521053 18.0108947 11.7127895 4.51089474 15.5813684 4.59 18.7389474 18.2477368 21.1078421 4.51089474 24.5022632 4.51089474 20.8705263 22.1949474 16.4496316 22.1949474 13.6075263 9.32684211 10.5285789 22.2740526 6.18678947 22.2740526 2.55505263 4.51089474"></polyline>
            </g>
        </g>
    </g>
</svg>