<?xml version="1.0" encoding="UTF-8"?>
<svg width="79px" height="26px" viewBox="0 0 79 26" version="1.1" xmlns="http://www.w3.org/2000/svg" xmlns:xlink="http://www.w3.org/1999/xlink">
    <!-- Generator: Sketch 43.1 (39012) - http://www.bohemiancoding.com/sketch -->
    <title>Fill 2</title>
    <desc>Created with Sketch.</desc>
    <defs></defs>
    <g id="Page-1" stroke="none" stroke-width="1" fill="none" fill-rule="evenodd">
        <g id="Type-studies-Copy-28" transform="translate(-392.000000, -2559.000000)" fill="#868791">
            <path d="M400.408437,2560.82295 L398.108012,2560.81239 L394.542753,2560.81239 C394.294937,2560.81239 392.382912,2560.83097 392.382912,2560.83097 L392.349138,2563.92297 L392,2563.9331 L392.021109,2560.45819 L392.008866,2559.0304 C393.223882,2559.0895 397.61449,2559.12834 402.170169,2559.12834 C407.482382,2559.12834 410.904524,2559.0743 412.247881,2559.03462 L412.231838,2560.6165 L412.260124,2564.13152 L411.897899,2564.12772 C411.900854,2563.84065 411.838795,2562.67418 411.842594,2562.56019 C411.844283,2562.51755 411.766603,2560.95087 411.755626,2560.8335 L410.230734,2560.81239 L405.66028,2560.81155 L403.909103,2560.81873 L403.911636,2582.50284 C403.911636,2582.53239 403.944565,2583.9243 403.950898,2584.21307 C404.126522,2584.2384 405.820284,2584.35534 406.12636,2584.35534 L406.246257,2584.35365 L406.246257,2584.94554 C406.155068,2584.94554 406.041925,2584.95483 405.94778,2584.95398 C404.985646,2584.94343 403.432468,2584.82818 402.328484,2584.82818 C401.24223,2584.82818 399.710161,2584.93499 398.576625,2584.95229 C398.54665,2584.95314 398.314455,2584.94807 398.227065,2584.94343 L398.224532,2584.31397 C398.235508,2584.31397 398.305589,2584.31228 398.411555,2584.3089 C398.8903,2584.2899 400.069431,2584.21053 400.376774,2584.18478 L400.424057,2584.17761 L400.408437,2560.82295 Z M420.931575,2584.9696 C420.039944,2584.9696 418.52434,2584.82142 417.388692,2584.82142 C416.266132,2584.82142 414.742084,2584.9696 413.644854,2584.9696 C413.551554,2584.9696 413.387328,2584.94892 413.296983,2584.94892 L413.296983,2584.33297 C413.513558,2584.32874 414.483292,2584.24009 414.752216,2584.22024 C415.068425,2584.19703 415.360569,2584.1814 415.490599,2584.13919 C415.490599,2584.13919 415.493132,2583.39658 415.496931,2582.24616 C415.509174,2578.26759 415.532394,2567.02173 415.495242,2561.93326 C415.491443,2561.39626 415.488065,2560.03559 415.488065,2559.83844 C415.282467,2559.81817 414.995389,2559.79073 414.789368,2559.76329 C414.532264,2559.74936 413.47303,2559.64846 413.291917,2559.6379 L413.285162,2559.02238 C414.336797,2559.02238 415.89673,2559.12919 417.163251,2559.12919 C418.373202,2559.12919 420.015036,2559.02238 421.257916,2559.02238 L421.255383,2559.66408 C421.058228,2559.67759 420.578638,2559.70799 420.562595,2559.70925 C420.20037,2559.74387 419.186731,2559.8587 418.937648,2559.87643 L418.937648,2561.85601 C418.936804,2566.41253 418.93216,2578.33303 418.930471,2582.34664 L418.930471,2583.6482 C418.930471,2583.9547 418.93216,2584.13919 418.935115,2584.15016 C418.941026,2584.17381 419.576819,2584.23291 419.723314,2584.24178 C420.003637,2584.27428 421.157016,2584.32537 421.192057,2584.33297 L421.269737,2584.33297 L421.268892,2584.94892 C421.192901,2584.94892 421.009255,2584.9696 420.931575,2584.9696 Z M428.93557,2567.66385 C428.93557,2567.66385 428.361835,2570.83691 427.53353,2575.31364 C427.09447,2577.73185 426.185951,2583.78034 426.124314,2584.17929 C426.648654,2584.25697 427.680025,2584.34183 427.96077,2584.33212 C428.025363,2584.33212 428.135972,2584.33465 428.216608,2584.33465 L428.215763,2584.94723 C428.098821,2584.96285 427.82483,2584.96454 427.813432,2584.96454 C426.819634,2584.94343 426.103205,2584.86786 425.031306,2584.86786 C424.748871,2584.86786 423.257753,2584.94554 422.732569,2584.96369 C422.513461,2584.97298 422.203585,2584.94892 422.144481,2584.95145 L422.145325,2584.34521 C422.196408,2584.34521 422.300685,2584.32368 422.366967,2584.32199 C422.842334,2584.30046 423.573539,2584.227 424.193291,2584.14594 C424.243529,2583.84831 424.77969,2580.86692 424.949826,2579.81064 C425.607995,2576.31504 427.548306,2564.63687 427.791056,2563.06173 C428.003832,2561.36122 428.251226,2559.24571 428.274023,2559.01267 C428.788231,2559.02111 429.675641,2559.00084 429.675641,2559.00084 C429.675641,2559.00084 431.392622,2564.33628 431.671679,2565.11688 C431.950736,2565.89832 437.197935,2579.39817 437.197935,2579.39817 C437.197935,2579.39817 439.660897,2573.58189 441.855779,2567.34047 C442.299906,2566.0769 442.88335,2564.42873 443.312701,2563.09466 C443.941318,2561.14211 444.631994,2559 444.631994,2559 L445.982951,2559 C445.982951,2559 446.317312,2561.38486 446.436365,2562.44578 C446.781281,2565.5361 449.037379,2578.09239 449.830221,2582.22167 C450.027376,2583.25516 450.17767,2584.14932 450.17767,2584.14932 C450.41071,2584.16578 451.323028,2584.25613 451.863833,2584.3013 C451.976553,2584.31059 452.280518,2584.3279 452.349333,2584.3279 L452.35271,2584.94976 C452.35271,2584.94976 452.10616,2584.96285 451.971487,2584.96285 C450.761537,2584.95483 448.876108,2584.84633 447.713019,2584.84633 C446.677849,2584.84633 445.682785,2584.93499 444.647615,2584.95736 C444.47199,2584.96116 444.293833,2584.95229 444.114831,2584.95229 L444.114831,2584.33634 C444.119897,2584.3355 444.257948,2584.3279 444.33014,2584.33043 C444.835482,2584.30721 446.175884,2584.17549 446.308869,2584.16916 C446.309713,2583.9433 446.236255,2583.16101 446.127334,2582.36141 C446.051765,2581.79739 445.924269,2580.83399 445.787906,2579.88367 C445.492807,2578.03709 444.129185,2570.38476 443.723898,2568.26038 C443.656773,2567.91209 443.6154,2567.71705 443.6154,2567.71705 C443.6154,2567.71705 439.390284,2578.55636 438.537914,2580.69172 C438.455168,2580.90154 438.396064,2581.04887 438.3758,2581.09827 C437.561848,2583.1551 436.878771,2584.9886 436.878771,2584.9886 L435.67642,2584.98185 L429.092196,2568.05816 L428.93557,2567.66385 Z M470.738382,2564.09437 L470.390089,2564.09522 L470.386289,2563.91284 C470.350404,2563.46111 470.274413,2562.18277 470.177735,2561.10749 C470.169292,2561.01166 470.153671,2560.93693 470.153671,2560.93693 C469.944695,2560.93018 469.094437,2560.90274 469.080927,2560.88838 C469.066996,2560.87572 468.388985,2560.86643 468.375053,2560.85925 C468.368298,2560.85545 466.14513,2560.84237 463.852726,2560.84068 C462.28815,2560.83899 460.749326,2560.8487 459.805345,2560.8487 C459.57315,2560.84786 458.741045,2560.88078 458.741045,2560.88078 L458.736401,2571.0843 L465.287695,2571.10626 C465.318936,2571.10626 467.02283,2571.05306 467.064203,2571.05433 C467.167636,2571.05517 468.337479,2570.9872 468.38223,2570.97116 C468.38223,2570.97116 468.399539,2570.86435 468.42698,2570.78667 C468.521969,2570.16903 468.642711,2569.58263 468.671841,2569.125 C468.671841,2569.125 468.703082,2568.92869 468.704771,2568.79612 L469.077128,2568.7881 C469.077128,2568.83581 469.096126,2568.95317 469.094437,2569.11993 C469.09106,2569.73504 469.046309,2571.01169 469.047998,2571.84928 C469.049687,2573.05417 469.082616,2574.14253 469.089371,2574.68756 C469.094437,2574.84376 469.084305,2575.092 469.084305,2575.092 L468.675218,2575.092 C468.668464,2575.03416 468.661709,2574.97464 468.652843,2574.91173 C468.580651,2574.21641 468.521969,2573.72585 468.413048,2573.01786 C468.409671,2572.98155 468.388985,2572.85406 468.380541,2572.77173 C468.171565,2572.75738 467.619784,2572.73923 467.326373,2572.73078 C467.198876,2572.72614 465.601793,2572.71474 463.804176,2572.71179 C463.067905,2572.71094 461.744812,2572.74556 461.184165,2572.74471 C460.526841,2572.74471 459.441854,2572.78567 458.733868,2572.81184 L458.741045,2582.06463 L458.769331,2583.25684 L462.747053,2583.32566 L468.41136,2583.32059 C468.437112,2583.32059 469.7087,2583.26993 470.105121,2583.27753 C470.189556,2583.27922 470.358848,2583.26444 470.358848,2583.26444 C470.396843,2582.96512 470.443283,2582.35972 470.489722,2581.78219 C470.493521,2581.7138 470.63495,2580.17877 470.63495,2579.76631 L470.983243,2579.76209 C470.983243,2580.15176 470.909363,2585 470.909363,2585 C470.270613,2585 468.311305,2584.99789 465.891404,2584.96285 C464.423505,2584.94005 462.788426,2584.94174 461.1753,2584.91768 C459.866561,2584.8991 458.572598,2584.85224 457.394733,2584.85393 C455.717014,2584.85562 454.073069,2584.96623 453.435164,2584.96707 C453.289514,2584.96707 453.031566,2584.95652 452.975416,2584.95652 L452.975416,2584.3469 L453.092781,2584.3469 C453.485825,2584.34521 454.643425,2584.27639 455.247134,2584.1641 C455.247134,2584.04167 455.286818,2582.53239 455.286818,2582.50115 C455.286818,2582.50115 455.284285,2563.34164 455.284285,2562.48209 C455.284285,2561.55668 455.267821,2560.01406 455.267821,2559.87728 C454.926282,2559.83675 454.804696,2559.81564 454.732926,2559.80044 C454.370701,2559.74936 453.655961,2559.68688 453.273893,2559.65986 C453.164973,2559.66239 453.046342,2559.64846 452.98766,2559.6379 C452.98766,2559.6379 452.985971,2559.03884 452.982171,2559.0304 C453.069561,2559.03546 453.248141,2559.02238 453.568571,2559.02406 C454.244049,2559.02702 455.486929,2559.12623 457.005488,2559.12834 C457.959601,2559.12919 459.498847,2559.08232 460.601143,2559.06839 C462.174163,2559.06839 463.368071,2559.05319 464.890852,2559.04391 C467.376612,2559.02702 469.499724,2559.00929 470.329718,2559.00464 C470.57289,2559.0038 470.705453,2559.00296 470.705453,2559.00296 C470.705453,2559.05066 470.704186,2559.10554 470.704186,2559.16718 C470.704186,2559.35969 470.69532,2559.69785 470.698698,2560.11243 C470.707141,2561.40259 470.738382,2563.43198 470.738382,2564.09437 L470.738382,2564.09437 Z" id="Fill-2"></path>
        </g>
    </g>
</svg>