<?xml version="1.0" encoding="UTF-8"?>
<svg width="107px" height="18px" viewBox="0 0 107 18" version="1.1" xmlns="http://www.w3.org/2000/svg" xmlns:xlink="http://www.w3.org/1999/xlink">
    <!-- Generator: Sketch 43.1 (39012) - http://www.bohemiancoding.com/sketch -->
    <title>Combined Shape Copy</title>
    <desc>Created with Sketch.</desc>
    <defs></defs>
    <g id="Page-1" stroke="none" stroke-width="1" fill="none" fill-rule="evenodd">
        <g id="Type-studies-Copy-28" transform="translate(-459.000000, -2228.000000)" fill="#373C3F">
            <path d="M546.546207,2245.90235 C543.445663,2245.35929 540.873151,2243.29038 539.706219,2240.40312 C539.105841,2238.91673 538.902896,2236.36677 539.262747,2234.83623 C539.774807,2232.65833 541.154079,2230.66553 542.947697,2229.51175 C544.540249,2228.48669 545.800197,2228.19825 549.131872,2228.09396 L552.115911,2228 L552.115911,2234.26404 L550.96871,2233.7952 C550.214244,2233.48702 549.347971,2233.30099 548.443176,2233.25025 C547.157859,2233.17791 547.00847,2233.20985 546.202328,2233.73037 C545.046671,2234.47638 544.513941,2235.50332 544.503606,2237.00661 C544.496089,2237.98093 544.574073,2238.25434 545.054187,2238.93834 C545.797378,2239.9991 546.811162,2240.56002 547.983732,2240.56096 C549.202339,2240.56096 549.399647,2240.41063 549.32824,2239.53496 L549.269988,2238.81714 L547.846556,2238.82654 L546.423124,2238.83593 L546.423124,2234.76764 L550.280013,2234.82026 L554.135962,2234.87381 L554.135962,2238.61326 C554.135962,2240.88605 554.216764,2242.58289 554.340786,2242.94086 C554.598225,2243.6803 554.356759,2243.98096 552.865679,2244.7777 C551.068303,2245.73793 548.358616,2246.22086 546.546207,2245.90235 Z M462.063901,2245.2146 C462.149401,2245.03702 462.245236,2242.21271 462.277181,2238.93646 L462.334494,2232.9806 L460.666777,2233.04637 L459,2233.11026 L459.101472,2228.13999 L463.370827,2228.0902 L467.641122,2228.04134 L467.641122,2245.53686 L464.774528,2245.53686 C462.10806,2245.53686 461.920149,2245.51431 462.063901,2245.2146 Z M468.742285,2236.79239 L468.742285,2228.04792 L476.271909,2228.04792 L476.271909,2233.14033 L475.261883,2233.05671 L474.251857,2232.97308 L474.251857,2234.85878 L477.374011,2234.85878 L477.374011,2228.04792 L482.883584,2228.04792 L482.883584,2245.53686 L477.016039,2245.53686 L477.194556,2245.06427 C477.293209,2244.80495 477.374011,2243.35521 477.374011,2241.84346 L477.374011,2239.09337 L474.234945,2239.09337 L474.290379,2241.99285 C474.320445,2243.58822 474.41628,2245.03796 474.50178,2245.2146 C474.647412,2245.51431 474.454802,2245.53686 471.700955,2245.53686 L468.742285,2245.53686 L468.742285,2236.79239 Z M483.640868,2245.23245 C484.024208,2244.77018 484.112527,2229.89603 483.738582,2228.80896 L483.477385,2228.04792 L494.085003,2228.04792 L494.085003,2233.14878 L493.121016,2232.8951 C492.577012,2232.75229 491.517189,2232.66397 490.687559,2232.69216 L489.219029,2232.74195 L489.107221,2234.9067 L490.678163,2234.82402 L492.249106,2234.74133 L492.249106,2239.04921 L491.436387,2238.87539 C490.989157,2238.77956 490.307977,2238.72788 489.921819,2238.75983 L489.219029,2238.81714 L489.106282,2240.79115 L491.182706,2240.70002 C492.32427,2240.65022 493.445164,2240.54875 493.671598,2240.47452 L494.085003,2240.33923 L494.085003,2245.53686 L488.737035,2245.53686 C483.784621,2245.53686 483.407858,2245.51431 483.640868,2245.23245 Z M504.491556,2244.93837 C501.950989,2238.84345 497.578283,2228.96681 497.245679,2228.57031 L496.806905,2228.04792 L502.976048,2228.04792 C506.367855,2228.04792 509.143312,2228.10993 509.143312,2228.18603 C509.143312,2228.26214 508.782521,2229.27686 508.342808,2230.44097 L507.542304,2232.5578 L506.139542,2232.61135 C505.368165,2232.64142 504.736781,2232.69685 504.736781,2232.73444 C504.736781,2232.90919 506.457113,2237.54498 506.568921,2237.67276 C506.638448,2237.75262 507.5066,2235.61888 508.496895,2232.93268 L510.298969,2228.04792 L524.569927,2228.04792 L524.569927,2230.73693 C524.569927,2233.23146 524.546438,2233.41562 524.248598,2233.2775 C524.071961,2233.19576 522.956705,2233.09711 521.769102,2233.05858 L519.610936,2232.98718 L519.610936,2234.90576 L521.172483,2234.82308 L522.73309,2234.74133 L522.73309,2239.04921 L521.921311,2238.87539 C521.474081,2238.77956 520.791961,2238.72788 520.405803,2238.75983 L519.703013,2238.81714 L519.593084,2240.93491 L521.232614,2240.93491 C522.219151,2240.93491 523.181259,2240.82498 523.651978,2240.65868 C524.081357,2240.50647 524.462817,2240.38244 524.501339,2240.38244 C524.538922,2240.38244 524.569927,2241.54186 524.569927,2242.95965 L524.569927,2245.53686 L519.221959,2245.53686 C514.840796,2245.53686 513.909693,2245.49364 514.073177,2245.29634 C514.292094,2245.03138 514.47155,2232.28157 514.256391,2232.28157 C514.188742,2232.28251 512.868662,2235.26467 511.322149,2238.90922 L508.510049,2245.53686 L504.741479,2245.53686 L504.491556,2244.93837 Z M525.277415,2228.0451 L528.641035,2228.05168 C533.577477,2228.05355 535.21137,2228.41904 536.646076,2229.85751 C538.409628,2231.62576 538.649215,2235.03072 537.151559,2237.0658 L536.703389,2237.67088 L537.4898,2238.27408 C538.675523,2239.18169 539.421533,2240.73666 539.837757,2243.18233 C540.025669,2244.29195 540.222037,2245.27567 540.27935,2245.36774 C540.339481,2245.4664 539.079533,2245.53499 537.243635,2245.53499 L534.10363,2245.53499 L534.31597,2245.14413 C534.644816,2244.52684 534.421201,2243.06301 533.86874,2242.2268 C533.37923,2241.48549 532.368265,2240.70659 531.595948,2240.47828 C531.184421,2240.35614 531.183481,2240.35896 531.183481,2242.58947 C531.183481,2243.81747 531.268042,2244.98252 531.372333,2245.17795 C531.556486,2245.52371 531.467228,2245.53499 528.410843,2245.53499 C525.475662,2245.53499 525.274596,2245.51338 525.421167,2245.21272 C525.622233,2244.80119 525.62787,2229.01284 525.427744,2228.46038 L525.277415,2228.0451 Z M531.584673,2232.65363 C531.195696,2232.62921 531.182542,2233.03979 531.182542,2234.30444 L531.182542,2235.96182 L531.745337,2235.96182 C532.124919,2235.96182 532.486649,2235.788 532.84744,2235.42627 C533.697741,2234.57409 533.476005,2233.37616 532.382358,2232.91859 C532.017809,2232.76544 531.76131,2232.66491 531.584673,2232.65363 Z M554.989082,2245.2146 C555.190147,2244.80213 555.196724,2229.01472 554.994719,2228.45944 L554.84439,2228.04228 L560.136924,2228.09114 L565.430398,2228.13999 L565.53281,2233.23052 L565.113767,2233.09617 C564.096225,2232.7692 563.315452,2232.65833 561.986915,2232.65457 L560.563484,2232.64988 L560.563484,2234.90576 L562.125031,2234.82308 L563.685638,2234.74133 L563.685638,2236.93708 C563.685638,2238.95338 563.65933,2239.1225 563.364309,2239.00787 C563.187672,2238.93928 562.493338,2238.83593 561.822493,2238.77862 L560.602945,2238.67527 L560.537176,2239.64395 C560.491138,2240.32137 560.543753,2240.64082 560.711934,2240.70565 C561.022928,2240.82592 564.571642,2240.63331 565.109069,2240.46701 L565.521536,2240.33923 L565.521536,2245.53686 L560.176386,2245.53686 C555.148807,2245.53686 554.840631,2245.51807 554.989082,2245.2146 Z" id="Combined-Shape-Copy"></path>
        </g>
    </g>
</svg>