<?xml version="1.0" encoding="UTF-8"?>
<svg width="170px" height="26px" viewBox="0 0 170 26" version="1.1" xmlns="http://www.w3.org/2000/svg" xmlns:xlink="http://www.w3.org/1999/xlink">
    <!-- Generator: Sketch 43.1 (39012) - http://www.bohemiancoding.com/sketch -->
    <title>Group 12</title>
    <desc>Created with Sketch.</desc>
    <defs></defs>
    <g id="Page-1" stroke="none" stroke-width="1" fill="none" fill-rule="evenodd">
        <g id="Type-studies-Copy-28" transform="translate(-636.000000, -2559.000000)" fill-rule="nonzero" fill="#868791">
            <g id="Group-12" transform="translate(636.000000, 2559.000000)">
                <path d="M80.9081481,7.098 C80.9081481,10.5011111 80.5682222,21.0503704 80.5682222,21.0503704 C80.5682222,23.0918519 81.2480741,23.998963 83.1768889,23.998963 L83.1768889,24.9060741 L75.5771852,24.9060741 L75.5771852,23.998963 C77.505037,23.998963 78.5257778,23.0918519 78.5257778,21.0503704 L79.2065926,3.80851852 C78.6394074,2.44688889 78.0722222,1.99333333 76.5979259,1.88066667 L76.5979259,1.08718519 L82.3824444,1.08718519 L88.5078519,17.1946667 L94.7468889,1.08718519 L99.9642222,1.08718519 L99.9642222,1.88066667 C98.4899259,1.88066667 97.6964444,2.56148148 97.6964444,4.14940741 L98.3772593,20.8240741 C98.3772593,23.3200741 98.8308148,23.9999259 100.873259,23.9999259 L100.873259,24.907037 L92.1391852,24.907037 L92.1391852,23.9999259 C93.8397778,23.9999259 94.6351852,23.4327407 94.5205926,20.8240741 C94.5205926,20.8240741 94.1797037,9.14044444 94.067037,7.09896296 L89.8714074,18.668963 C89.2412377,20.298946 88.7106316,21.9656925 88.2825185,23.66 L86.9228148,23.7736296 C86.5819259,22.5256296 85.6748148,20.2578519 85.6748148,20.2578519 C85.6748148,20.2578519 82.1551852,10.3874815 80.9081481,7.098 L80.9081481,7.098 Z M73.762,25.0197037 C73.3084444,24.9060741 72.8548889,24.9060741 72.4003704,24.9060741 C71.4932593,24.9060741 69.9043704,25.3596296 67.9765185,25.3596296 C60.6031111,25.3596296 55.1585185,20.9357778 55.1585185,12.7688889 C55.1585185,5.85 60.2631852,0.519037037 68.0891852,0.519037037 C69.9034074,0.519037037 71.9458519,0.859925926 73.6474074,1.53977778 C73.9873333,1.19888889 74.100963,0.972592593 74.4408889,0.632666667 L75.1217037,0.632666667 C75.0080741,1.88066667 74.5545185,5.96362963 74.5545185,5.96362963 L73.8737037,5.96362963 C73.4201481,3.58222222 72.1721481,1.99333333 68.2018519,1.99333333 C63.4380741,1.99333333 59.1278519,5.73637037 59.1278519,12.6562222 C59.1278519,20.4831852 63.5517037,23.8853333 68.4291111,23.8853333 C71.6059259,23.8853333 73.5337778,22.0711111 74.7817778,19.8023704 L75.5762222,20.1432593 L73.762,25.0197037 Z M52.3225926,5.51007407 L51.5291111,5.51007407 C51.4154815,3.35496296 50.7346667,2.67414815 49.0331111,2.67414815 L45.7436296,2.67414815 L45.7436296,20.4831852 C45.7436296,23.4317778 46.3108148,23.998963 48.2396296,23.998963 L48.2396296,24.9060741 L39.7318519,24.9060741 L39.7318519,23.998963 C41.6606667,23.998963 42.2278519,23.4317778 42.2278519,20.3685926 L42.2278519,2.67414815 L38.9383704,2.67414815 C36.7832593,2.67414815 36.4423704,3.24133333 35.8751852,5.51007407 L35.0817037,5.51007407 L35.6488889,0.405407407 L36.2160741,0.519037037 C36.4423704,1.08622222 36.8968889,1.08622222 38.2575556,1.08622222 L49.2603704,1.08622222 C51.3028148,1.08622222 51.7563704,1.08622222 52.2099259,0.405407407 L52.8907407,0.405407407 L52.3225926,5.51007407 Z" id="Shape"></path>
                <path d="M28.2754815,25.4732593 C26.6875556,25.4732593 25.4395556,25.246963 24.5324444,24.9060741 C23.6253333,24.6797778 22.9445185,24.3388889 22.6045926,24.1125926 C22.151037,24.5661481 21.8101481,25.1333333 21.8101481,25.1333333 L21.1293333,24.907037 L21.6965185,19.5760741 L22.490963,19.6897037 C22.9445185,22.1847407 24.6460741,23.9999259 28.1628148,23.9999259 C30.8851111,23.9999259 32.7002963,21.7321481 32.7002963,19.2361481 C32.7002963,17.1946667 31.9058519,16.172963 29.1835556,14.1314815 C28.2764444,13.5642963 27.482,13.1107407 26.8011852,12.5435556 C24.3061481,10.9565926 22.7172593,9.14140741 22.7172593,6.19185185 C22.7172593,2.78874074 25.5531852,0.52 29.2962222,0.52 C31.4513333,0.52 32.812963,1.20081481 33.2665185,1.42711111 L34.06,0.52 L34.6271852,0.63362963 L34.06,5.51103704 L33.2665185,5.39740741 C33.2665185,3.12962963 31.9048889,2.10792593 29.6361481,2.10792593 C27.481037,2.10792593 25.8931111,3.2422963 25.8931111,5.39740741 C25.8931111,7.32622222 27.3674074,8.57325926 29.068963,9.70859259 C29.9760741,10.2757778 30.6568889,10.7293333 31.3367407,11.1828889 C35.307037,14.0178519 36.2141481,15.833037 36.2141481,18.5553333 C36.2160741,22.5246667 33.1528889,25.4732593 28.2754815,25.4732593 L28.2754815,25.4732593 Z M15.3448148,5.51007407 L14.4377037,5.51007407 C14.4377037,3.46762963 13.5305926,2.67414815 11.7154074,2.67414815 L6.61074074,2.67414815 L6.61074074,11.6354815 L9.90022222,11.6354815 C11.6017778,11.6354815 11.9426667,10.7283704 12.168963,9.25311111 L12.9624444,9.25311111 L12.9624444,15.6057778 L12.168963,15.6057778 C11.9426667,13.9042222 11.6017778,13.2234074 9.78659259,13.2234074 L6.61074074,13.2234074 L6.61074074,20.8240741 C6.61074074,23.659037 7.29155556,23.9999259 9.10674074,23.9999259 L9.10674074,24.907037 L0.485333333,24.907037 L0.485333333,23.9999259 C2.64044444,23.9999259 2.98037037,23.4327407 2.98037037,20.8240741 L2.98037037,4.14844444 C2.98037037,2.56051852 2.29955556,1.8797037 0.485333333,1.8797037 L0.485333333,1.08622222 L12.2816296,1.08622222 C14.3231111,1.08622222 14.7766667,0.972592593 15.1175556,0.291777778 L15.912,0.291777778 L15.3448148,5.51007407 L15.3448148,5.51007407 Z M137.737407,6.87074074 L137.737407,20.4822222 C137.737407,23.4308148 138.416296,23.998 140.231481,23.998 L140.231481,24.9051111 L126.848222,24.9051111 L126.848222,23.998 C127.869926,23.998 128.776074,23.6571111 128.776074,22.9772593 C128.776074,22.5227407 128.663407,21.7292593 128.435185,20.9348148 L127.413481,17.6453333 L119.92837,17.6453333 C119.813778,18.0998519 118.454074,21.8419259 118.454074,22.8636296 C118.454074,23.7707407 119.475778,23.998 120.154667,23.998 L120.154667,24.9051111 L113.91563,24.9051111 L113.91563,23.998 C115.05,23.998 115.958074,23.8843704 116.751556,21.502963 L122.537037,3.01311111 C122.196148,2.21962963 121.743556,1.99237037 120.950074,1.87874074 L120.950074,1.08525926 L126.054741,1.08525926 L132.178222,20.4822222 C132.74637,22.5237037 133.312593,23.5454074 134.220667,23.998 C135.582296,23.5444444 135.923185,23.0908889 135.923185,20.4822222 L135.923185,4.14844444 C134.901481,2.78681481 134.786889,1.8797037 132.859037,1.8797037 L132.859037,1.08622222 L138.644519,1.08622222 L148.173037,17.3063704 L148.173037,4.94288889 C148.173037,2.44688889 147.606815,1.8797037 145.677037,1.8797037 L145.677037,1.08622222 L158.381407,1.08622222 L158.381407,1.8797037 C157.587926,1.8797037 156.907111,2.22059259 156.907111,3.01407407 C156.907111,3.58125926 157.13437,4.14844444 157.360667,4.82925926 L160.991037,12.6562222 L164.507778,5.05651852 C165.074,4.03577778 165.188593,3.46859259 165.188593,2.90140741 C165.188593,2.22059259 164.733111,1.8797037 163.714296,1.8797037 L163.714296,1.08622222 L169.725111,1.08622222 L169.725111,1.8797037 C168.250815,1.8797037 167.341778,3.24133333 166.662889,4.8282963 L162.011778,14.3568148 L162.011778,20.5958519 C162.011778,23.3191111 162.692593,23.998963 164.507778,23.998963 L164.507778,24.9060741 L155.88637,24.9060741 L155.88637,23.998963 C157.701556,23.998963 158.38237,23.3191111 158.38237,20.5958519 L158.38237,15.2648889 L153.39037,4.71562963 C152.484222,2.67414815 152.143333,2.22059259 151.575185,1.8797037 C150.440815,2.33325926 150.100889,3.1277037 150.100889,4.94288889 L150.100889,22.411037 C150.100889,22.411037 150.215481,23.7726667 150.328148,25.3596296 L148.853852,25.4732593 L137.737407,6.87074074 L137.737407,6.87074074 Z M123.558741,5.73637037 L120.381926,16.0593333 L126.960889,16.0593333 L123.558741,5.73637037 Z" id="Shape"></path>
                <path d="M109.491778,16.0593333 L107.791185,16.0593333 L107.791185,20.9357778 C107.791185,23.4317778 108.470074,23.998963 110.399852,23.998963 L110.399852,24.9060741 L101.665778,24.9060741 L101.665778,23.998963 C103.480963,23.998963 104.161778,23.3191111 104.161778,20.8231111 L104.161778,4.82925926 C104.161778,2.33422222 103.480963,1.88066667 101.665778,1.88066667 L101.665778,1.08718519 L108.244741,1.08718519 C114.596444,1.08718519 118.338519,3.01503704 118.338519,8.23237037 C118.339481,13.676963 113.802963,16.0593333 109.491778,16.0593333 L109.491778,16.0593333 Z M108.357407,2.67414815 L107.791185,2.67414815 L107.791185,14.3568148 L108.810963,14.3568148 C112.555926,14.3568148 114.483778,12.6552593 114.483778,8.34503704 C114.483778,4.03481481 112.781259,2.67414815 108.357407,2.67414815 L108.357407,2.67414815 Z M69.9043704,20.3685926 C65.5941481,20.3685926 62.6445926,17.3054074 62.6445926,12.8825185 C62.6445926,8.68592593 65.7077778,5.39644444 69.9043704,5.39644444 C73.9882963,5.39644444 77.0505185,8.5722963 77.0505185,12.8825185 C77.0514815,17.0791111 73.8746667,20.3685926 69.9043704,20.3685926 Z M69.9043704,6.75711111 C66.9557778,6.75711111 65.9340741,9.59303704 65.9340741,12.8825185 C65.9340741,15.9457037 66.8421481,19.0079259 69.9043704,19.0079259 C72.8539259,19.0079259 73.761037,15.9447407 73.761037,12.7688889 C73.762,9.70666667 72.6276296,6.75711111 69.9043704,6.75711111 L69.9043704,6.75711111 Z M19.9959259,19.0079259 L19.9959259,18.2134815 C21.1302963,18.2134815 21.3575556,17.8735556 21.3575556,17.5336296 C21.3575556,17.0791111 21.2439259,16.7391852 21.1302963,16.3992593 C21.1302963,16.3992593 20.903037,15.4911852 20.6767407,14.8113333 L16.2528889,14.8113333 L15.7993333,16.2856296 C15.6866667,16.6265185 15.573037,16.9664444 15.573037,17.42 C15.573037,17.8745185 16.0265926,18.2134815 16.7074074,18.2134815 L16.7074074,19.0079259 L12.2835556,19.0079259 L12.2835556,18.2134815 C13.4179259,18.2134815 13.8714815,17.8735556 14.325037,16.6265185 L17.7281481,6.41718519 C17.6145185,5.96266667 17.2736296,5.62274074 16.5937778,5.62274074 L16.5937778,4.8282963 L20.2222222,4.8282963 C21.4600099,8.46173787 22.7076936,12.0918007 23.9652593,15.7184444 C24.5324444,17.6462963 25.0996296,18.2134815 26.0067407,18.2134815 L26.0067407,19.0079259 L19.9959259,19.0079259 L19.9959259,19.0079259 Z M18.407037,8.00511111 L16.7054815,13.5633333 L20.2222222,13.5633333 L18.407037,8.00511111 L18.407037,8.00511111 Z" id="Shape"></path>
            </g>
        </g>
    </g>
</svg>