<?xml version="1.0" encoding="UTF-8"?>
<svg width="40px" height="40px" viewBox="0 0 40 40" version="1.1" xmlns="http://www.w3.org/2000/svg" xmlns:xlink="http://www.w3.org/1999/xlink">
    <!-- Generator: Sketch 43.1 (39012) - http://www.bohemiancoding.com/sketch -->
    <title>Group 4</title>
    <desc>Created with Sketch.</desc>
    <defs></defs>
    <g id="Page-1" stroke="none" stroke-width="1" fill="none" fill-rule="evenodd">
        <g id="Type-studies-Copy-29" transform="translate(-612.000000, -2876.000000)">
            <g id="Group-4" transform="translate(612.000000, 2876.000000)">
                <path d="M20,0 C8.95423729,0 0,8.95423729 0,20 L0,20 C0,31.0457627 8.95423729,40 20,40 L20,40 C31.0457627,40 40,31.0457627 40,20 L40,20 C40,8.95423729 31.0457627,0 20,0 Z" id="Fill-1" fill="#868791"></path>
                <g id="Group-2" transform="translate(8.135593, 11.186441)">
                    <path d="M5.40249153,10.2754746 L7.77537288,16.8432712 C7.77537288,16.8432712 8.07198305,17.457678 8.38977966,17.457678 C8.70757627,17.457678 13.4321525,12.5424237 13.4321525,12.5424237 L18.6863898,2.39411864 L5.48723729,8.58055932 L5.40249153,10.2754746 Z" id="Fill-3" fill="#FFFFFF"></path>
                    <path d="M5.40249153,10.2754746 L7.77537288,16.8432712 C7.77537288,16.8432712 8.07198305,17.457678 8.38977966,17.457678 C8.70757627,17.457678 13.4321525,12.5424237 13.4321525,12.5424237 L18.6863898,2.39411864 L5.48723729,8.58055932 L5.40249153,10.2754746 Z" id="Fill-3" fill="#B7B7BD" opacity="0.400000006"></path>
                    <path d="M8.54867797,11.9597966 L8.09308475,16.8009831 C8.09308475,16.8009831 7.90240678,18.2840339 9.38545763,16.8009831 C10.868678,15.3179322 12.288,14.1738644 12.288,14.1738644" id="Fill-5" fill="#B7B7BD" opacity="0.600000024"></path>
                    <path d="M5.44544068,10.5098475 L0.564932203,8.91950847 C0.564932203,8.91950847 -0.0176101695,8.68289831 0.169508475,8.14628814 C0.208152542,8.03544068 0.285949153,7.94137288 0.519,7.779 C1.60052542,7.02527119 20.5367966,0.219 20.5367966,0.219 C20.5367966,0.219 21.0715424,0.039 21.3873051,0.158661017 C21.5317119,0.21340678 21.6239153,0.275271186 21.7017119,0.50120339 C21.7298475,0.58340678 21.7459492,0.758152542 21.7440847,0.932050847 C21.7425593,1.05730508 21.7269661,1.17357627 21.7157797,1.35577966 C21.6003559,3.21662712 18.149678,17.1045932 18.149678,17.1045932 C18.149678,17.1045932 17.9432373,17.9173051 17.2034068,17.9451017 C16.9335763,17.9551017 16.6061186,17.9003559 16.2147627,17.5637458 C14.7628983,16.3147627 9.74476271,12.9423898 8.63611864,12.2006949 C8.57374576,12.159 8.55577966,12.1045932 8.54510169,12.0515424 C8.52950847,11.9734068 8.61442373,11.8764576 8.61442373,11.8764576 C8.61442373,11.8764576 17.3522203,4.10950847 17.5847627,3.29459322 C17.6027288,3.23137288 17.5351017,3.20018644 17.4435763,3.22747458 C16.8630678,3.44086441 6.80272881,9.79357627 5.69255932,10.4952712 C5.62747458,10.5362881 5.44544068,10.5098475 5.44544068,10.5098475" id="Fill-7" fill="#FFFFFF"></path>
                </g>
            </g>
        </g>
    </g>
</svg>