<?xml version="1.0" encoding="UTF-8"?>
<svg width="69px" height="38px" viewBox="0 0 69 38" version="1.1" xmlns="http://www.w3.org/2000/svg" xmlns:xlink="http://www.w3.org/1999/xlink">
    <!-- Generator: Sketch 43.1 (39012) - http://www.bohemiancoding.com/sketch -->
    <title>Combined Shape</title>
    <desc>Created with Sketch.</desc>
    <defs></defs>
    <g id="Page-1" stroke="none" stroke-width="1" fill="none" fill-rule="evenodd">
        <path d="M28.6219078,13.1363474 C28.7186971,13.1610434 28.8141579,13.197241 28.9064621,13.2455013 C32.5208881,15.138209 35.9984225,15.0887201 39.2544858,13.1023716 C40.5476222,8.01471903 41.8212025,3.37004057 42.4293921,2.21287372 C43.1368282,0.86745501 44.2906284,0.0406993326 45.515319,0.00139932648 C46.6075179,-0.0325636407 47.6107374,0.553054964 48.25755,1.611244 C49.4177059,3.507348 48.1592815,6.71054105 47.5770035,7.78474122 C47.0299261,8.79247099 44.9907309,12.2445641 41.5386193,14.7000866 C40.346196,19.4369503 39.0603932,24.8084364 38.0689072,29.0858296 C37.93006,29.6850333 37.3932497,30.0901631 36.7992381,30.0901631 C36.7024361,30.0901631 36.6041676,30.0794889 36.505899,30.0571704 C35.8043298,29.8965742 35.3657879,29.202274 35.5271244,28.5060332 C35.7921073,27.3643923 37.0392871,22.0050359 38.4282476,16.3958091 C36.3559607,17.1996792 34.2011485,17.4152231 32.0158999,17.0394505 C32.6496835,18.741298 32.7543071,20.7553622 32.3038171,22.7973434 C31.3313983,27.2101033 28.2816499,30.0615371 24.5352214,30.0615371 C24.0028111,30.0615371 23.4576894,30.0018593 22.915501,29.8839593 C18.5882612,28.9441554 16.2547492,24.5993215 17.3674819,19.5538799 C18.3257228,15.209046 21.447339,12.2901715 25.1360776,12.2901715 C25.6689768,12.2901715 26.2136098,12.3498493 26.7557981,12.4677493 C27.4219409,12.6123568 28.0469079,12.8375081 28.6219078,13.1363474 Z M22.8475442,37.9424012 C22.1298413,37.9424012 21.5465854,37.3664864 21.5436521,36.653264 C21.5407187,35.9385862 22.1225078,35.3568489 22.8426552,35.3544231 L44.8191275,35.2700008 L44.8245054,35.2700008 C45.5422083,35.2700008 46.1254641,35.8459158 46.1283975,36.559138 C46.1313309,37.273816 45.5495418,37.8550679 44.8293944,37.8579791 L22.8529221,37.9424012 L22.8475442,37.9424012 Z M1.30521354,30.0901631 C1.20058928,30.0901631 1.09498722,30.0775482 0.98889627,30.0513481 C0.290260443,29.8786222 -0.135081173,29.1765592 0.0389666598,28.4832295 L6.49975914,2.75337011 C6.67380698,2.06004037 7.38173187,1.63841438 8.0803677,1.81065515 C8.77900353,1.98338109 9.20434513,2.68592935 9.03029731,3.37925909 L2.56950483,29.1086332 C2.42185751,29.697163 1.88993604,30.0901631 1.30521354,30.0901631 Z M25.1360776,14.8781497 C22.665185,14.8781497 20.6157229,16.9304833 19.9151315,20.1069912 C18.974002,24.3761363 21.023953,26.8238959 23.4728452,27.355659 C23.8321855,27.4337737 24.1895702,27.4730737 24.5352214,27.4730737 C27.006603,27.4730737 29.056065,25.4207401 29.7561676,22.2442322 C30.1458197,20.4762172 30.0074613,18.7780688 29.3665155,17.4622464 C28.7324144,16.1609795 27.6372819,15.3080238 26.1984538,14.9960497 C25.8391135,14.9179349 25.4817288,14.8781497 25.1360776,14.8781497 Z M60.2468057,30.0615371 C59.7139065,30.0615371 59.1687847,30.0018593 58.6265964,29.8839593 C54.2993567,28.9441554 51.9658445,24.5993215 53.0790662,19.5538799 C54.0368182,15.209046 57.1589234,12.2901715 60.8471731,12.2901715 C61.3800723,12.2901715 61.9247051,12.3498493 62.4668934,12.4677493 C64.6840477,12.9490531 66.4450598,14.3226126 67.4257899,16.3356461 C68.3199852,18.1711021 68.5292338,20.4660283 68.0149126,22.7973434 C67.0420048,27.2101033 63.9927454,30.0615371 60.2468057,30.0615371 Z M60.8471731,14.8781497 C58.3762805,14.8781497 56.3268183,16.9304833 55.6262269,20.1069912 C54.6846085,24.3761363 56.7350485,26.8238959 59.1839407,27.355659 C59.543281,27.4337737 59.9006657,27.4730737 60.2468057,27.4730737 C62.7176983,27.4730737 64.7671605,25.4207401 65.4677519,22.2442322 C65.857404,20.4762172 65.7190456,18.7780688 65.0776109,17.4622464 C64.4439987,16.1609795 63.3483773,15.3080238 61.9095493,14.9960497 C61.5502089,14.9179349 61.1928242,14.8781497 60.8471731,14.8781497 Z M45.6052761,2.58840712 L45.5994094,2.58840712 C45.3906498,2.59519971 45.0332651,2.85525901 44.7413927,3.41031094 C44.3766744,4.10461104 43.6203486,6.70035217 42.7056198,10.1631193 C44.1703594,8.52658948 45.0547766,6.97399665 45.2806477,6.5577077 C45.9822169,5.26468899 46.3019564,3.40109242 46.0281733,2.95423679 C45.9753723,2.86787383 45.7900797,2.58840712 45.6052761,2.58840712 Z M49.8821595,30.0901631 C49.8239806,30.0901631 49.7653127,30.0862815 49.7056672,30.0780334 C43.4849238,29.244 41.1968792,23.4217768 40.856117,20.4597209 C40.8057605,20.0230541 40.9827417,19.5902689 41.3259484,19.3117726 L49.6352658,12.5613901 C50.1930989,12.1087122 51.0144482,12.1902233 51.4701016,12.7428494 C51.9262437,13.2959606 51.8441087,14.1110717 51.2872535,14.5637496 L43.5670588,20.8352543 C43.9395993,22.5338878 45.3471378,26.8821181 50.0552295,27.5138294 C50.7690212,27.6089256 51.2691642,28.2610146 51.1723624,28.9693851 C51.0843606,29.6185629 50.524572,30.0901631 49.8821595,30.0901631 Z M14.4668476,30.0901631 C14.4081798,30.0901631 14.3495119,30.0862815 14.2903553,30.0780334 C8.06961193,29.244 5.78156737,23.4217768 5.44031629,20.4597209 C5.39044865,20.0230541 5.56694098,19.5902689 5.91014765,19.3117726 L14.219465,12.5613901 C14.7768092,12.1087122 15.5986474,12.1902233 16.0547896,12.7428494 C16.5109318,13.2959606 16.4287969,14.1110717 15.8714528,14.5637496 L8.15174686,20.8352543 C8.52428745,22.5338878 9.93133707,26.8821181 14.6394288,27.5138294 C15.3532204,27.6089256 15.8538524,28.2610146 15.7570505,28.9693851 C15.6685599,29.6185629 15.1092601,30.0901631 14.4668476,30.0901631 Z" id="Combined-Shape" fill="#2B9BB5" fill-rule="nonzero"></path>
    </g>
</svg>