<?xml version="1.0" encoding="UTF-8"?>
<svg width="72px" height="40px" viewBox="0 0 72 40" version="1.1" xmlns="http://www.w3.org/2000/svg" xmlns:xlink="http://www.w3.org/1999/xlink">
    <!-- Generator: Sketch 43.1 (39012) - http://www.bohemiancoding.com/sketch -->
    <title>Combined Shape</title>
    <desc>Created with Sketch.</desc>
    <defs></defs>
    <g id="Page-1" stroke="none" stroke-width="1" fill="none" fill-rule="evenodd" opacity="0.600000024">
        <g id="Type-studies-Copy-29" transform="translate(-270.000000, -2876.000000)" fill-rule="nonzero" fill="#353747">
            <path d="M300.174061,2889.84873 C300.276099,2889.87476 300.376736,2889.91292 300.474046,2889.9638 C304.284481,2891.95915 307.9506,2891.90697 311.383238,2889.81291 C312.746501,2884.44935 314.089147,2879.5528 314.730318,2878.33288 C315.476118,2876.9145 316.692489,2876.04291 317.983594,2876.00148 C319.135022,2875.96567 320.192646,2876.58305 320.874535,2877.69862 C322.097605,2879.69755 320.770937,2883.07445 320.157082,2884.2069 C319.580337,2885.26928 317.430557,2888.90858 313.791239,2891.49727 C312.534151,2896.49101 311.17862,2902.15379 310.133366,2906.66314 C309.98699,2907.29484 309.421068,2907.72194 308.794844,2907.72194 C308.692792,2907.72194 308.589195,2907.71069 308.485597,2907.68716 C307.745982,2907.51785 307.283658,2906.7859 307.453744,2906.0519 C307.733097,2904.84835 309.04791,2899.19836 310.512194,2893.28495 C308.327528,2894.13241 306.055861,2894.35964 303.752107,2893.96349 C304.420261,2895.75763 304.530558,2897.88092 304.055638,2900.03363 C303.030485,2904.68569 299.815351,2907.69176 295.865755,2907.69176 C295.304472,2907.69176 294.729789,2907.62885 294.158198,2907.50455 C289.596294,2906.51378 287.136237,2901.93333 288.309312,2896.61428 C289.319518,2892.03383 292.610418,2888.95666 296.499195,2888.95666 C297.060994,2888.95666 297.635162,2889.01958 298.206753,2889.14387 C298.90902,2889.29632 299.567879,2889.53368 300.174061,2889.84873 Z M294.086556,2916 C293.329932,2916 292.715047,2915.39285 292.711954,2914.64095 C292.708862,2913.88752 293.322201,2913.27423 294.081402,2913.27168 L317.249648,2913.18268 L317.255318,2913.18268 C318.011941,2913.18268 318.626827,2913.78982 318.629919,2914.54172 C318.633012,2915.29516 318.019672,2915.90793 317.260472,2915.911 L294.092225,2916 L294.086556,2916 Z M271.375995,2907.72194 C271.265697,2907.72194 271.154368,2907.70864 271.042524,2907.68102 C270.306001,2907.49893 269.857593,2906.75879 270.04108,2906.02786 L276.852238,2878.90268 C277.035724,2878.17176 277.78204,2877.72726 278.518562,2877.90885 C279.255085,2878.09094 279.703493,2878.83159 279.520006,2879.56251 L272.708848,2906.68718 C272.553194,2907.30763 271.992426,2907.72194 271.375995,2907.72194 Z M296.499195,2891.68498 C293.894308,2891.68498 291.733704,2893.84862 290.99512,2897.19738 C290.002953,2901.69804 292.164072,2904.27854 294.745767,2904.83914 C295.124594,2904.92149 295.501359,2904.96293 295.865755,2904.96293 C298.471159,2904.96293 300.631762,2902.7993 301.369831,2899.45053 C301.780613,2897.58663 301.634752,2895.79639 300.959048,2894.40922 C300.29056,2893.03738 299.136039,2892.13817 297.619184,2891.80928 C297.240357,2891.72693 296.863591,2891.68498 296.499195,2891.68498 Z M333.513962,2907.69176 C332.952164,2907.69176 332.377481,2907.62885 331.80589,2907.50455 C327.243986,2906.51378 324.783928,2901.93333 325.957519,2896.61428 C326.96721,2892.03383 330.258625,2888.95666 334.146887,2888.95666 C334.708685,2888.95666 335.282853,2889.01958 335.854444,2889.14387 C338.191834,2889.65127 340.048345,2891.09932 341.082259,2893.22152 C342.024946,2895.15651 342.245542,2897.57589 341.70333,2900.03363 C340.677662,2904.68569 337.463042,2907.69176 333.513962,2907.69176 Z M334.146887,2891.68498 C331.541999,2891.68498 329.381396,2893.84862 328.642811,2897.19738 C327.650129,2901.69804 329.811764,2904.27854 332.393458,2904.83914 C332.772286,2904.92149 333.149051,2904.96293 333.513962,2904.96293 C336.11885,2904.96293 338.279454,2902.7993 339.018038,2899.45053 C339.42882,2897.58663 339.282959,2895.79639 338.60674,2894.40922 C337.938767,2893.03738 336.78373,2892.13817 335.266875,2891.80928 C334.888048,2891.72693 334.511283,2891.68498 334.146887,2891.68498 Z M318.078429,2878.72878 L318.072244,2878.72878 C317.852164,2878.73594 317.475398,2879.0101 317.167698,2879.59525 C316.783201,2880.3272 315.98586,2883.06371 315.021526,2886.71426 C316.565698,2884.98898 317.498076,2883.35219 317.736196,2882.91333 C318.475811,2881.55019 318.81289,2879.58553 318.52426,2879.11444 C318.468595,2879.0234 318.273255,2878.72878 318.078429,2878.72878 Z M322.587246,2907.72194 C322.525912,2907.72194 322.464063,2907.71785 322.401182,2907.70915 C315.843091,2906.82989 313.430967,2900.69193 313.071725,2897.56924 C313.018638,2897.1089 313.205217,2896.65264 313.567035,2896.35904 L322.326963,2889.24259 C322.915047,2888.76536 323.780938,2888.85129 324.261301,2889.43389 C324.74218,2890.01699 324.655591,2890.87631 324.068537,2891.35354 L315.92968,2897.96514 C316.322423,2899.75589 317.806292,2904.33992 322.769701,2905.00589 C323.522202,2905.10614 324.049467,2905.7936 323.947416,2906.54038 C323.854642,2907.22476 323.264496,2907.72194 322.587246,2907.72194 Z M285.251378,2907.72194 C285.189529,2907.72194 285.127679,2907.71785 285.065315,2907.70915 C278.507223,2906.82989 276.095099,2900.69193 275.735342,2897.56924 C275.68277,2897.1089 275.868834,2896.65264 276.230652,2896.35904 L284.99058,2889.24259 C285.578149,2888.76536 286.444555,2888.85129 286.925433,2889.43389 C287.406312,2890.01699 287.319723,2890.87631 286.732154,2891.35354 L278.593812,2897.96514 C278.986556,2899.75589 280.469909,2904.33992 285.433318,2905.00589 C286.185818,2905.10614 286.713599,2905.7936 286.611548,2906.54038 C286.518259,2907.22476 285.928628,2907.72194 285.251378,2907.72194 Z" id="Combined-Shape"></path>
        </g>
    </g>
</svg>